<?xml version="1.0" encoding="UTF-8" standalone="no"?>
<svg
   width="716.96448pt"
   height="362.69153pt"
   viewBox="0 0 716.96448 362.69153"
   version="1.1"
   id="svg1293"
   xmlns="http://www.w3.org/2000/svg"
   xmlns:svg="http://www.w3.org/2000/svg">
  <defs
     id="defs593">
    <clipPath
       id="clip-0">
      <path
         clip-rule="nonzero"
         d="m 1474,858 h 159 v 56 h -159 z m 0,0"
         id="path125" />
    </clipPath>
    <clipPath
       id="clip-1">
      <path
         clip-rule="nonzero"
         d="m 1167.6797,913.06641 h 515.5351 c 0,-139.26954 -115.4062,-252.16797 -257.7695,-252.16797 -142.3594,0 -257.7656,112.89843 -257.7656,252.16797"
         id="path128" />
    </clipPath>
    <clipPath
       id="clip-2">
      <path
         clip-rule="nonzero"
         d="m 1308,849 h 108 v 65 h -108 z m 0,0"
         id="path131" />
    </clipPath>
    <clipPath
       id="clip-3">
      <path
         clip-rule="nonzero"
         d="m 1167.6797,913.06641 h 515.5351 c 0,-139.26954 -115.4062,-252.16797 -257.7695,-252.16797 -142.3594,0 -257.7656,112.89843 -257.7656,252.16797"
         id="path134" />
    </clipPath>
    <clipPath
       id="clip-4">
      <path
         clip-rule="nonzero"
         d="m 1258,875 h 156 v 39 h -156 z m 0,0"
         id="path137" />
    </clipPath>
    <clipPath
       id="clip-5">
      <path
         clip-rule="nonzero"
         d="m 1167.6797,913.06641 h 515.5351 c 0,-139.26954 -115.4062,-252.16797 -257.7695,-252.16797 -142.3594,0 -257.7656,112.89843 -257.7656,252.16797"
         id="path140" />
    </clipPath>
    <clipPath
       id="clip-6">
      <path
         clip-rule="nonzero"
         d="m 1290,762 h 117 v 79 h -117 z m 0,0"
         id="path143" />
    </clipPath>
    <clipPath
       id="clip-7">
      <path
         clip-rule="nonzero"
         d="m 1167.6797,913.06641 h 515.5351 c 0,-139.26954 -115.4062,-252.16797 -257.7695,-252.16797 -142.3594,0 -257.7656,112.89843 -257.7656,252.16797"
         id="path146" />
    </clipPath>
    <clipPath
       id="clip-8">
      <path
         clip-rule="nonzero"
         d="m 1575,748 h 80 v 104 h -80 z m 0,0"
         id="path149" />
    </clipPath>
    <clipPath
       id="clip-9">
      <path
         clip-rule="nonzero"
         d="m 1167.6797,913.06641 h 515.5351 c 0,-139.26954 -115.4062,-252.16797 -257.7695,-252.16797 -142.3594,0 -257.7656,112.89843 -257.7656,252.16797"
         id="path152" />
    </clipPath>
    <clipPath
       id="clip-10">
      <path
         clip-rule="nonzero"
         d="m 1257,776 h 43 v 101 h -43 z m 0,0"
         id="path155" />
    </clipPath>
    <clipPath
       id="clip-11">
      <path
         clip-rule="nonzero"
         d="m 1167.6797,913.06641 h 515.5351 c 0,-139.26954 -115.4062,-252.16797 -257.7695,-252.16797 -142.3594,0 -257.7656,112.89843 -257.7656,252.16797"
         id="path158" />
    </clipPath>
    <clipPath
       id="clip-12">
      <path
         clip-rule="nonzero"
         d="m 1500,764 h 41 v 98 h -41 z m 0,0"
         id="path161" />
    </clipPath>
    <clipPath
       id="clip-13">
      <path
         clip-rule="nonzero"
         d="m 1167.6797,913.06641 h 515.5351 c 0,-139.26954 -115.4062,-252.16797 -257.7695,-252.16797 -142.3594,0 -257.7656,112.89843 -257.7656,252.16797"
         id="path164" />
    </clipPath>
    <clipPath
       id="clip-14">
      <path
         clip-rule="nonzero"
         d="m 1167,854 h 40 v 60 h -40 z m 0,0"
         id="path167" />
    </clipPath>
    <clipPath
       id="clip-15">
      <path
         clip-rule="nonzero"
         d="m 1167.6797,913.06641 h 515.5351 c 0,-139.26954 -115.4062,-252.16797 -257.7695,-252.16797 -142.3594,0 -257.7656,112.89843 -257.7656,252.16797"
         id="path170" />
    </clipPath>
    <clipPath
       id="clip-16">
      <path
         clip-rule="nonzero"
         d="m 1635,851 h 49 v 63 h -49 z m 0,0"
         id="path173" />
    </clipPath>
    <clipPath
       id="clip-17">
      <path
         clip-rule="nonzero"
         d="m 1167.6797,913.06641 h 515.5351 c 0,-139.26954 -115.4062,-252.16797 -257.7695,-252.16797 -142.3594,0 -257.7656,112.89843 -257.7656,252.16797"
         id="path176" />
    </clipPath>
    <clipPath
       id="clip-18">
      <path
         clip-rule="nonzero"
         d="m 1421,903 h 54 v 11 h -54 z m 0,0"
         id="path179" />
    </clipPath>
    <clipPath
       id="clip-19">
      <path
         clip-rule="nonzero"
         d="m 1167.6797,913.06641 h 515.5351 c 0,-139.26954 -115.4062,-252.16797 -257.7695,-252.16797 -142.3594,0 -257.7656,112.89843 -257.7656,252.16797"
         id="path182" />
    </clipPath>
    <clipPath
       id="clip-20">
      <path
         clip-rule="nonzero"
         d="m 1550,773 h 42 v 84 h -42 z m 0,0"
         id="path185" />
    </clipPath>
    <clipPath
       id="clip-21">
      <path
         clip-rule="nonzero"
         d="m 1167.6797,913.06641 h 515.5351 c 0,-139.26954 -115.4062,-252.16797 -257.7695,-252.16797 -142.3594,0 -257.7656,112.89843 -257.7656,252.16797"
         id="path188" />
    </clipPath>
    <clipPath
       id="clip-22">
      <path
         clip-rule="nonzero"
         d="m 1216,773 h 33 v 78 h -33 z m 0,0"
         id="path191" />
    </clipPath>
    <clipPath
       id="clip-23">
      <path
         clip-rule="nonzero"
         d="m 1167.6797,913.06641 h 515.5351 c 0,-139.26954 -115.4062,-252.16797 -257.7695,-252.16797 -142.3594,0 -257.7656,112.89843 -257.7656,252.16797"
         id="path194" />
    </clipPath>
    <clipPath
       id="clip-24">
      <path
         clip-rule="nonzero"
         d="m 1215,860 h 34 v 54 h -34 z m 0,0"
         id="path197" />
    </clipPath>
    <clipPath
       id="clip-25">
      <path
         clip-rule="nonzero"
         d="m 1167.6797,913.06641 h 515.5351 c 0,-139.26954 -115.4062,-252.16797 -257.7695,-252.16797 -142.3594,0 -257.7656,112.89843 -257.7656,252.16797"
         id="path200" />
    </clipPath>
    <clipPath
       id="clip-26">
      <path
         clip-rule="nonzero"
         d="m 1663,768 h 21 v 76 h -21 z m 0,0"
         id="path203" />
    </clipPath>
    <clipPath
       id="clip-27">
      <path
         clip-rule="nonzero"
         d="m 1167.6797,913.06641 h 515.5351 c 0,-139.26954 -115.4062,-252.16797 -257.7695,-252.16797 -142.3594,0 -257.7656,112.89843 -257.7656,252.16797"
         id="path206" />
    </clipPath>
    <clipPath
       id="clip-28">
      <path
         clip-rule="nonzero"
         d="m 1175,772 h 32 v 76 h -32 z m 0,0"
         id="path209" />
    </clipPath>
    <clipPath
       id="clip-29">
      <path
         clip-rule="nonzero"
         d="m 1167.6797,913.06641 h 515.5351 c 0,-139.26954 -115.4062,-252.16797 -257.7695,-252.16797 -142.3594,0 -257.7656,112.89843 -257.7656,252.16797"
         id="path212" />
    </clipPath>
    <clipPath
       id="clip-30">
      <path
         clip-rule="nonzero"
         d="m 1175,771 h 4 v 3 h -4 z m 0,0"
         id="path215" />
    </clipPath>
    <clipPath
       id="clip-31">
      <path
         clip-rule="nonzero"
         d="m 1167.6797,913.06641 h 515.5351 c 0,-139.26954 -115.4062,-252.16797 -257.7695,-252.16797 -142.3594,0 -257.7656,112.89843 -257.7656,252.16797"
         id="path218" />
    </clipPath>
    <clipPath
       id="clip-32">
      <path
         clip-rule="nonzero"
         d="m 1415,816 h 78 v 79 h -78 z m 0,0"
         id="path221" />
    </clipPath>
    <clipPath
       id="clip-33">
      <path
         clip-rule="nonzero"
         d="m 1167.6797,913.06641 h 515.5351 c 0,-139.26954 -115.4062,-252.16797 -257.7695,-252.16797 -142.3594,0 -257.7656,112.89843 -257.7656,252.16797"
         id="path224" />
    </clipPath>
    <clipPath
       id="clip-34">
      <path
         clip-rule="nonzero"
         d="m 1669,784 h 15 v 22 h -15 z m 0,0"
         id="path227" />
    </clipPath>
    <clipPath
       id="clip-35">
      <path
         clip-rule="nonzero"
         d="m 1167.6797,913.06641 h 515.5351 c 0,-139.26954 -115.4062,-252.16797 -257.7695,-252.16797 -142.3594,0 -257.7656,112.89843 -257.7656,252.16797"
         id="path230" />
    </clipPath>
  </defs>
  <path
     fill-rule="nonzero"
     fill="#19181e"
     fill-opacity="1"
     d="m 32.311785,292.56244 1.625,-6.8242 c 0.7617,-3.1836 -0.8633,-4.4375 -3.3203,-5.0235 l -3.0938,-0.7382 c -2.4531,-0.586 -4.4687,-0.1993 -5.2304,2.9843 l -1.625,6.8243 z m 33.3555,26.2227 c -0.5391,2.2734 -1.7813,3.039 -4.0547,2.4961 L 2.6633846,307.21874 c -2.27350003,-0.543 -3.03910003,-1.7813 -2.49610003,-4.0547 l 7.22650003,-30.293 c 3.2539004,-13.6484 10.4610004,-16.4492 19.4688004,-14.3008 l 4.1836,1 c 5.0937,1.2149 8.4297,3.3555 9.1562,7.5664 2.3125,-6.4687 8.1719,-9.6836 15.8164,-7.8594 l 19.2852,4.5977 c 2.2734,0.543 3.0351,1.7813 2.4922,4.0547 l -3.3594,14.1016 c -0.543,2.2734 -1.7812,3.039 -4.0586,2.496 l -13.918,-3.3203 c -2.7304,-0.6523 -4.1289,-0.023 -4.7382,2.5235 l -3.0352,12.7343 17.8281,4.254 c 2.2774,0.5429 3.0391,1.7812 2.4961,4.0585 z m 0,0"
     id="path671" />
  <path
     fill-rule="nonzero"
     fill="#19181e"
     fill-opacity="1"
     d="m 83.120385,254.95694 c -1.0039,2.1133 -2.375,2.5977 -4.4883,1.5938 l -54.707,-26.086 c -2.1094,-1.0078 -2.5977,-2.3789 -1.5899,-4.4882 l 18.6758,-39.1719 c 1.0078,-2.1133 2.3789,-2.5977 4.4883,-1.5938 l 9.8789,4.711 c 2.1094,1.0078 2.5977,2.3789 1.5899,4.4883 l -11.1094,23.3007 6.5,3.1016 7.8515,-16.4648 c 1.0039,-2.1094 2.375,-2.5938 4.4883,-1.5899 l 9.0313,4.3086 c 2.1133,1.0039 2.5976,2.375 1.5898,4.4883 l -7.8476,16.4609 7.2617,3.4649 11.1094,-23.3047 c 1.0039,-2.1094 2.375,-2.5977 4.4882,-1.5899 l 9.878895,4.711 c 2.1094,1.0078 2.5938,2.3789 1.5899,4.4883 z m 0,0"
     id="path673" />
  <path
     fill-rule="nonzero"
     fill="#19181e"
     fill-opacity="1"
     d="m 106.05008,178.31634 6.7773,-8.8281 c 1.8242,-2.375 1.5625,-4.3438 -0.957,-6.2774 l -18.027295,-13.8398 c -2.4493,-1.8789 -4.418,-1.6211 -6.2383,0.7539 l -6.7774,8.8281 z m 3.1445,24.9336 c -1.4219,1.8516 -2.8633,2.043 -4.7187,0.6211 l -48.074295,-36.9023 c -1.8554,-1.4258 -2.0429,-2.8672 -0.621,-4.7227 l 19.1914,-25 c 9.5664,-12.4648 18.832,-14.5469 29.140595,-6.6328 l 23.1484,17.7656 c 10.3125,7.9141 10.6914,17.4063 1.125,29.8672 z m 0,0"
     id="path675" />
  <path
     fill-rule="nonzero"
     fill="#19181e"
     fill-opacity="1"
     d="m 151.36648,151.85544 c -1.7774,1.5234 -3.2305,1.4101 -4.75,-0.3672 l -39.3906,-46.0703 c -1.5196,-1.7735 -1.4063,-3.2266 0.3711,-4.7461 l 32.9843,-28.207096 c 1.7774,-1.5195 3.2305,-1.4062 4.75,0.3711 l 7.1094,8.3204 c 1.5234,1.7734 1.4063,3.2265 -0.3711,4.746 l -19.6172,16.777396 4.6797,5.4766 13.8633,-11.855496 c 1.7773,-1.5195 3.2266,-1.4063 4.7461,0.3711 l 6.5039,7.605396 c 1.5195,1.7774 1.4062,3.2266 -0.3711,4.7461 l -13.8633,11.8555 5.2305,6.1133 19.6211,-16.7774 c 1.7773,-1.5195 3.2265,-1.4062 4.7461,0.3711 l 7.1133,8.3164 c 1.5195,1.7774 1.4062,3.2266 -0.3711,4.7461 z m 0,0"
     id="path677" />
  <path
     fill-rule="nonzero"
     fill="#19181e"
     fill-opacity="1"
     d="m 214.28058,65.007744 7.6171,-3.5898 c 3.3008,-1.5547 3.0625,-3.8164 2.0274,-6.0196 l -2.1133,-4.4843 c -1.0391,-2.1993 -2.6328,-3.8282 -5.9297,-2.2735 l -7.6172,3.586 z m -0.7657,39.855496 c -2.1172,1 -3.4883,0.5039 -4.4843,-1.6094 l -25.8243,-54.835896 c -0.9961,-2.1172 -0.5039,-3.4844 1.6094,-4.4805 l 25.8984,-12.1992 c 15.3985,-7.2539 23.1172,-2.7188 27.7422,7.0976 l 5.1016,10.8321 c 4.6211,9.8164 3.2031,18.6523 -12.1992,25.9062 l -9.7344,4.586 6.6172,14.0468 c 0.9961,2.1133 0.5039,3.4844 -1.6094,4.4805 z m 0,0"
     id="path679" />
  <path
     fill-rule="nonzero"
     fill="#19181e"
     fill-opacity="1"
     d="m 269.10478,80.664044 c -2.2735,0.5547 -3.5157,-0.2032 -4.0664,-2.4766 l -14.3282,-58.8867 c -0.5546,-2.2735 0.2032,-3.5195 2.4766,-4.0703 l 42.168,-10.2578001 c 2.2734,-0.5547 3.5156,0.2031 4.0664,2.4726 l 2.5859,10.6367001 c 0.5547,2.2696 -0.2031,3.5157 -2.4726,4.0664 l -25.086,6.1016 1.7031,7 17.7227,-4.3125 c 2.2734,-0.5508 3.5156,0.2031 4.0664,2.4766 l 2.3672,9.7226 c 0.5547,2.2735 -0.2031,3.5156 -2.4766,4.0664 l -17.7226,4.3125 1.9023,7.8164 25.0821,-6.1015 c 2.2734,-0.5547 3.5156,0.2031 4.0703,2.4765 l 2.5859,10.6328 c 0.5547,2.2696 -0.2031,3.5118 -2.4766,4.0665 z m 0,0"
     id="path681" />
  <path
     fill-rule="nonzero"
     fill="#19181e"
     fill-opacity="1"
     d="m 342.29618,29.206944 7.0117,-0.2031 c 3.2734,-0.098 4.0586,-1.9922 3.9844,-4.5195 l -0.094,-3.1758 c -0.074,-2.5273 -0.9726,-4.3711 -4.2461,-4.2734 l -7.0117,0.207 z m -16.625,39.0469 c -2.3399,0.066 -3.3946,-0.9297 -3.4649,-3.2695 l -1.789,-60.5821001 c -0.07,-2.3359 0.9297,-3.3945 3.2656,-3.46479995 l 31.1328,-0.918 c 14.0234,-0.414 18.6055,5.81249995 18.8789,15.07030005 l 0.125,4.3008 c 0.1563,5.2344 -1.043,9.0117 -4.918,10.8086 6.8438,0.5469 11.4805,5.3711 11.711,13.2227 l 0.5859,19.8203 c 0.07,2.3359 -0.9297,3.3984 -3.2656,3.4648 l -14.4922,0.4297 c -2.3359,0.066 -3.3945,-0.9297 -3.4648,-3.2656 l -0.4219,-14.3047 c -0.082,-2.8047 -1.0547,-3.9922 -3.6719,-3.918 l -13.0898,0.3868 0.5429,18.3242 c 0.066,2.3398 -0.9296,3.3984 -3.2656,3.4648 z m 0,0"
     id="path683" />
  <path
     fill-rule="nonzero"
     fill="#19181e"
     fill-opacity="1"
     d="m 387.76488,64.417944 1.8946,-10.9688 c 0.3945,-2.3047 1.5859,-3.1445 3.8867,-2.7461 l 9.1289,1.5742 5.3437,-30.9726 -9.1289,-1.5742 c -2.3047,-0.3985 -3.1445,-1.586 -2.7461,-3.8907 l 1.9258,-11.1523001 c 0.3945,-2.3047 1.586,-3.1445 3.8906,-2.7461 l 39.2696,6.7734 c 2.3008,0.3946 3.1406,1.5860001 2.7422,3.8907001 l -1.9219,11.1523 c -0.3985,2.3047 -1.586,3.1445 -3.8906,2.7461 l -8.9414,-1.543 -5.3438,30.9727 8.9414,1.543 c 2.3047,0.3984 3.1445,1.5859 2.7461,3.8906 l -1.8906,10.9687 c -0.3985,2.3047 -1.586,3.1446 -3.8906,2.7461 l -39.2696,-6.7734 c -2.3047,-0.3984 -3.1406,-1.5859 -2.7461,-3.8906"
     id="path685" />
  <path
     fill-rule="nonzero"
     fill="#19181e"
     fill-opacity="1"
     d="m 444.60868,79.144444 c -2.1914,-0.8125 -2.8008,-2.1367 -1.9883,-4.3281 l 21.082,-56.8242 c 0.8125,-2.1914 2.1367,-2.7969 4.3282,-1.9844 l 39.1093,14.5078 c 2.1953,0.8125 2.8008,2.1367 1.9883,4.3282 l -3.875,10.4375 c -0.8086,2.1914 -2.1328,2.7968 -4.3281,1.9843 l -22.3594,-8.2968 -3.3828,9.121 15.2578,5.6602 c 2.1914,0.8125 2.8008,2.1367 1.9844,4.3281 l -3.9024,10.5235 c -0.8125,2.1914 -2.1367,2.8007 -4.3281,1.9843 l -15.2578,-5.6601 -6.4102,17.2773 c -0.8125,2.1914 -2.1367,2.7969 -4.3281,1.9844 z m 0,0"
     id="path687" />
  <path
     fill-rule="nonzero"
     fill="#19181e"
     fill-opacity="1"
     d="m 524.29618,77.886644 12.539,7.6406 3.6446,-14.4257 c 0.1875,-1.2032 -0.051,-1.8946 -0.6875,-2.2813 l -2,-1.2187 c -0.6367,-0.3907 -1.3594,-0.2813 -2.3438,0.4336 z m -21.0977,26.351596 -11.7422,-7.156296 c -1.9961,-1.2148 -2.3398,-2.6289 -1.1211,-4.625 l 12.8516,-21.0859 c 1.9453,-3.1953 5.3398,-6.6016 10.9023,-10.8789 l 17.9961,-13.8945 c 1.7579,-1.4493 3.5235,-1.4688 5.6797,-0.1524 l 21.4844,13.0938 c 2.0742,1.2656 2.8672,2.8398 2.3867,5.0703 l -4.1015,22.3633 c -1.25,6.9023 -2.7266,11.4804 -4.6758,14.675696 l -12.8477,21.0821 c -1.2187,2 -2.6289,2.3398 -4.6289,1.125 l -12.0586,-7.3516 c -2.1562,-1.3125 -2.5781,-2.7773 -1.3633,-4.7734 l 6.8164,-11.1797 -14.1367,-8.617196 -6.8164,11.179696 c -1.2148,2 -2.6289,2.3398 -4.625,1.125"
     id="path689" />
  <path
     fill-rule="nonzero"
     fill="#19181e"
     fill-opacity="1"
     d="m 554.08518,140.14054 c -1.7226,-1.5781 -1.7851,-3.0312 -0.2031,-4.7539 l 31.0469,-33.8437 -10.1328,-9.292996 c -1.7227,-1.582 -1.7852,-3.0352 -0.2031,-4.7578 l 7.6484,-8.3399 c 1.582,-1.7265 3.0351,-1.7851 4.7578,-0.207 l 36.3945,33.386696 c 1.7227,1.5821 1.7852,3.0352 0.2032,4.7578 l -7.6524,8.3399 c -1.5781,1.7226 -3.0351,1.7851 -4.7539,0.207 l -10.1328,-9.2969 -31.0469,33.8399 c -1.582,1.7266 -3.0351,1.7891 -4.7617,0.207 z m 0,0"
     id="path691" />
  <path
     fill-rule="nonzero"
     fill="#19181e"
     fill-opacity="1"
     d="m 585.86258,166.01164 8.9258,-6.6523 c 1.875,-1.3985 3.3125,-1.1875 4.7109,0.6875 l 5.5352,7.4258 25.1953,-18.7813 -5.5313,-7.4258 c -1.3984,-1.875 -1.1875,-3.3164 0.6875,-4.7109 l 9.0742,-6.7656 c 1.875,-1.3946 3.3164,-1.1836 4.7149,0.6914 l 23.8086,31.9492 c 1.3984,1.875 1.1875,3.3125 -0.6875,4.7109 l -9.0742,6.7617 c -1.875,1.3985 -3.3164,1.1875 -4.7149,-0.6875 l -5.418,-7.2734 -25.2031,18.7813 5.4219,7.2734 c 1.3984,1.875 1.1914,3.3125 -0.6836,4.7109 l -8.9258,6.6524 c -1.875,1.3945 -3.3164,1.1875 -4.7148,-0.6875 l -23.8086,-31.9492 c -1.3985,-1.875 -1.1875,-3.3164 0.6875,-4.711"
     id="path693" />
  <path
     fill-rule="nonzero"
     fill="#19181e"
     fill-opacity="1"
     d="m 622.35478,226.43354 c -1.0352,-2.1992 -0.9571,-3.7852 0.7578,-5.6289 l 16.8203,-18.0586 c 4.1211,-4.4258 5.4102,-5.8594 10.7422,-8.3711 l 22.3359,-10.5273 c 2.1133,-0.9961 3.4844,-0.5039 4.4805,1.6093 l 6.3398,13.4571 c 0.9961,2.1132 0.625,3.7382 -1.4922,4.7343 l -23.3515,11.0039 c -1.1836,0.5586 -2.0781,1.2891 -3.1485,2.3086 l -9.9726,9.5625 c -0.9414,0.8555 -1.1172,1.3516 -0.6797,2.2852 l 0.4375,0.9297 c 0.4414,0.9297 0.9375,1.1094 2.1953,0.9297 l 13.8047,-1.6446 c 1.4688,-0.1757 2.6016,-0.4023 3.7891,-0.957 l 23.2656,-10.9648 c 2.1172,-0.9961 3.4883,-0.5078 4.4844,1.6093 l 6.2578,13.2852 c 1.039,2.1992 0.5039,3.4844 -1.6094,4.4805 l -22.3398,10.5234 c -5.3282,2.5117 -7.2539,2.5938 -13.2891,2.957 l -24.6367,1.4766 c -2.5117,0.1484 -3.7891,-0.8008 -4.8242,-3 z m 0,0"
     id="path695" />
  <path
     fill-rule="nonzero"
     fill="#19181e"
     fill-opacity="1"
     d="m 679.26098,282.80854 3.25,14.3203 12.8906,-7.4336 c 0.9922,-0.707 1.3243,-1.3555 1.1602,-2.0859 l -0.5195,-2.2813 c -0.168,-0.7304 -0.7461,-1.1718 -1.9453,-1.3789 z m -33.6094,3.2148 -3.0429,-13.4062 c -0.5196,-2.2813 0.2578,-3.5117 2.539,-4.0313 l 24.0821,-5.4648 c 3.6445,-0.8281 8.457,-0.7695 15.3984,0.2422 l 22.5117,3.2344 c 2.2617,0.2578 3.5039,1.5078 4.0625,3.9726 l 5.5703,24.5352 c 0.5391,2.3711 -0.039,4.039 -1.9726,5.2461 l -18.9063,12.6367 c -5.8242,3.9101 -10.1406,6.039 -13.7851,6.8672 l -24.0821,5.4687 c -2.2812,0.5156 -3.5117,-0.2578 -4.0312,-2.539 l -3.125,-13.7735 c -0.5586,-2.4648 0.1953,-3.7851 2.4766,-4.3047 l 12.7695,-2.8984 -3.6641,-16.1445 -12.7695,2.8984 c -2.2813,0.5156 -3.5156,-0.2578 -4.0313,-2.5391"
     id="path697" />
  <path
     fill-rule="nonzero"
     fill="#19181e"
     fill-opacity="1"
     d="m 87.288385,362.69134 c 0,-150.3437 121.878895,-272.222596 272.222595,-272.222596 150.3399,0 272.2188,121.878896 272.2188,272.222596"
     id="path699" />
  <g
     clip-path="url(#clip-0)"
     id="g705"
     transform="translate(-1065.9382,-560.76568)">
    <g
       clip-path="url(#clip-1)"
       id="g703">
      <path
         fill-rule="nonzero"
         fill="#ffffff"
         fill-opacity="1"
         d="m 1590.9727,896.39453 c -0.047,-2.44141 -1.3125,-3.57422 -3.7227,-3.58203 -2.832,-0.0117 -4.1602,1.28125 -4,4.17578 0.168,3.04297 1.9922,3.72266 4.6055,3.55078 2.6992,-0.17969 3.0703,-2.02344 3.1172,-4.14453 m -0.031,-11.21875 c 0.074,-3.22656 -1.9844,-3.77734 -4.5625,-3.64453 -2.7109,0.13281 -3.1406,1.92578 -3.1562,4.17578 -0.027,3.28516 2.0781,3.66406 4.5976,3.60547 2.8008,-0.0625 3.1485,-1.97266 3.1211,-4.13672 m -11.8203,22.61719 c -0.1055,-3.04688 -1.9453,-3.7461 -4.625,-3.67188 -2.6797,0.0742 -3.3203,1.5625 -3.3984,3.87891 -0.098,2.92969 1.3007,4.19531 4.1054,4.19141 2.9532,-0.008 4.0235,-1.6836 3.918,-4.39844 m 7.0586,5.30859 c 4.5,-0.27344 4.832,-2.63281 4.7969,-5.41015 -0.047,-3.16016 -1.9297,-3.66016 -4.5,-3.4961 -3.2032,0.20313 -3.2774,2.35938 -3.2969,4.8086 -0.019,2.82812 1.0312,4.30078 3,4.09765 M 1510.8828,896.75 c 0,-4.58984 0.07,-9.18359 -0.039,-13.76953 -0.035,-1.41406 -0.586,-3.07422 -2.4727,-2.54688 -0.7852,0.21875 -1.7695,1.59375 -1.7813,2.45703 -0.1367,9.17969 -0.121,18.36329 -0.086,27.54297 0.01,1.5625 0.7422,2.80469 2.5703,2.57032 1.3242,-0.17188 1.7696,-1.32813 1.7813,-2.48438 0.051,-4.58984 0.02,-9.17969 0.027,-13.76953 m 68.1758,-1.44922 c -2.582,-7.29297 -10.4844,3.03516 -14.4219,-2.64062 -0.6875,-0.99219 -4.875,0.51171 -4.2969,3.65625 1.9805,10.83593 11.2657,-3.15625 14.9766,4.17187 0.5977,1.18359 4.125,-0.85547 3.7422,-5.1875 m -54.7383,11.88672 c 0.019,0 0.035,0 0.055,0 0,4.86328 -0.027,9.73047 0.016,14.59766 0.016,1.55468 0.6992,2.89453 2.4102,2.93359 1.7305,0.0391 2.4492,-1.27734 2.4531,-2.84766 0.031,-8.87109 0.031,-17.74609 -0.01,-26.62109 -0.01,-1.80469 -0.4844,-3.55859 -2.8008,-3.29688 -1.7226,0.19141 -2.0976,1.73047 -2.1133,3.21094 -0.039,4.00781 -0.012,8.01563 -0.012,12.02344 m -26.3984,-3.0625 c 0,4.28516 -0.016,8.57031 0.01,12.85547 0.012,1.6914 -0.1484,3.73828 2.3594,3.57812 1.6562,-0.10547 2.207,-1.59375 2.2187,-3.1289 0.074,-8.85157 0.1524,-17.70703 0.168,-26.5586 0,-1.5039 -0.6641,-3.04297 -2.2695,-3.16015 -2.4336,-0.17578 -2.4454,1.84375 -2.461,3.5625 -0.035,4.28515 -0.012,8.57031 -0.023,12.85156 m 134.0273,-28.44531 c 0.6485,6.03125 -1.1523,13.5039 -4.082,21.30468 -3.5547,9.46094 -1.418,19.96485 -1.0899,29.96875 0.2149,6.46485 -2.2226,8.2461 -8.0351,10.21875 -25.5508,8.65625 -50.7969,1.86329 -76.1133,-0.48828 -18.0664,-1.67578 -36.0508,-4.22265 -54.1055,-6.04297 -4.7539,-0.48046 -6.1718,-2.22265 -6.1367,-6.93359 0.094,-11.94922 0.7539,-23.59766 -5.8984,-35.05078 -5.3086,-9.14453 -0.9531,-14.02734 9.9805,-15.19141 44.9804,-4.79687 89.957,-9.6289 134.9296,-14.47656 10.5469,-1.13672 10.5391,-1.19141 10.5508,9.35547 0,1.73047 0,3.46094 0,7.33594"
         id="path701" />
    </g>
  </g>
  <g
     clip-path="url(#clip-2)"
     id="g711"
     transform="translate(-1065.9382,-560.76568)">
    <g
       clip-path="url(#clip-3)"
       id="g709">
      <path
         fill-rule="nonzero"
         fill="#ffffff"
         fill-opacity="1"
         d="m 1411.7813,914.87891 c 1.2773,18.40234 2.2968,36.82421 3.9804,55.1914 0.5352,5.8086 -0.9961,7.33985 -6.8242,7.15625 -13.9141,-0.4375 -27.8555,-0.51562 -41.7734,-0.17578 -5.5782,0.13672 -6.7344,-1.82812 -6.6524,-6.8125 0.2656,-15.60547 -0.2812,-31.23047 0.2188,-46.82422 0.2031,-6.29687 -1.9102,-8.23047 -8.0625,-9.02734 -12.0547,-1.5625 -23.9414,-4.35156 -35.9766,-6.11328 -4.8828,-0.71485 -7.1055,-2.37891 -7.1562,-7.40235 -0.1602,-15.32031 -0.5508,-30.64062 -1.086,-45.95703 -0.1484,-4.23828 1.6328,-5.25781 5.6094,-5.24609 29.0156,0.0937 58.0312,0.17187 87.043,-0.10156 6.1484,-0.0586 6.2851,3.42187 6.5781,7.5664 1.3789,19.2461 2.7969,38.49219 4.2031,57.73828 -0.035,0.004 -0.066,0.008 -0.1015,0.008"
         id="path707" />
    </g>
  </g>
  <g
     clip-path="url(#clip-4)"
     id="g717"
     transform="translate(-1065.9382,-560.76568)">
    <g
       clip-path="url(#clip-5)"
       id="g715">
      <path
         fill-rule="nonzero"
         fill="#ffffff"
         fill-opacity="1"
         d="m 1277.2109,926.83984 c 2.6172,0.23438 3.5079,-0.96093 3.4454,-3.42578 -0.062,-2.51562 -1.211,-3.32812 -3.6641,-3.35547 -2.6953,-0.0312 -3.332,1.29688 -3.375,3.58985 -0.051,2.57422 1.168,3.49609 3.5937,3.1914 m 26.5508,30.76953 c -2.3203,-0.25781 -3.4883,0.6875 -3.5586,3.23438 -0.07,2.50781 0.9883,3.46875 3.4453,3.53516 2.3985,0.0625 3.7344,-0.64454 3.6055,-3.26563 -0.1055,-2.21484 -0.5976,-3.85547 -3.4922,-3.50391 m 34.3555,45.39843 c 0.3867,-2.5469 -0.9414,-3.36327 -3.4102,-3.45311 -2.5507,-0.0899 -3.5859,0.81641 -3.5429,3.35941 0.039,2.3828 0.8047,3.6289 3.4375,3.6054 2.4726,-0.023 3.7773,-0.9258 3.5156,-3.5117 m -8.5313,-36.09374 c 1.6211,3.15625 0.5664,7.45703 5.9141,6.91016 2.9922,-0.30469 3.0703,-2.60938 2.5586,-4.41406 -1.2891,-4.54297 -4.9609,-2.14454 -8.4727,-2.4961 m 38.0782,40.79294 c 2.5,0.074 3.4687,-1.0781 3.3945,-3.6133 -0.07,-2.582 -1.2266,-3.4023 -3.7109,-3.4726 -2.8633,-0.082 -3.3164,1.5234 -3.3555,3.7344 -0.043,2.457 0.9414,3.7734 3.6719,3.3515 m -54.6993,-66.41013 c 0.047,-2.57812 -1.5312,-3.24218 -3.8281,-3.1875 -2.5469,0.0586 -3.3398,1.35938 -3.2617,3.71485 0.082,2.60156 1.5391,3.20703 3.8281,3.21094 2.6797,0.004 3.3399,-1.51954 3.2617,-3.73829 m 100.836,45.21875 c -7.332,9.71875 -13.0469,17.14058 -18.5664,24.69918 -1.9297,2.6368 -4.3242,3.2891 -7.4414,3.3008 -21.461,0.082 -42.9219,0.1289 -64.3789,0.5625 -5.3946,0.1094 -7.1055,-1.625 -6.875,-6.7383 0.3437,-7.6484 -0.2383,-15.3398 0.25,-22.97261 0.3672,-5.82032 -1.336,-7.89844 -7.6094,-7.71485 -14.7813,0.44141 -29.5938,-0.11718 -44.3789,0.26563 -5.5586,0.14453 -6.7305,-1.69922 -6.6914,-6.78125 0.2187,-29.79297 0.1836,-59.58985 0,-89.38281 -0.035,-5.28907 0.7578,-7.19532 6.7344,-4.99219 9.4609,3.49219 19.1836,6.39062 28.9531,8.96484 4.9805,1.3125 6.168,3.90235 6.1094,8.51953 -0.082,6.75 -1.8594,15.29297 1.5781,19.77735 3.5508,4.63281 12.8828,3.32422 19.7031,4.51953 7.7031,1.35156 15.3477,3.1289 23.1016,4.03515 5.082,0.59766 6.5976,2.44141 6.4883,7.48047 -0.3477,16.16407 0.1914,32.35157 -0.25,48.51563 -0.168,6.19531 1.2773,8.30078 8.0078,8.10937 17.6172,-0.49609 35.2578,-0.16797 55.2617,-0.16797"
         id="path713" />
    </g>
  </g>
  <g
     clip-path="url(#clip-6)"
     id="g723"
     transform="translate(-1065.9382,-560.76568)">
    <g
       clip-path="url(#clip-7)"
       id="g721">
      <path
         fill-rule="nonzero"
         fill="#ffffff"
         fill-opacity="1"
         d="m 1331.3125,789.24609 c -0.168,2.8125 -0.5273,5.73438 4.1094,5.38282 3.0117,-0.23047 5.5234,-0.0117 5.8711,-4.23438 0.375,-4.57031 -2.336,-4.875 -5.6211,-5.38672 -3.5547,-0.55469 -4.8047,0.86328 -4.3594,4.23828 m 49.3281,5.39844 c -4.5937,-0.92578 -4.1406,2.26953 -4.2148,5.16406 -0.082,3.08203 0.035,5.59375 4.4844,5.21094 3.3554,-0.28906 5.2461,-1.00781 5.2929,-4.85156 0.051,-3.96094 -1.332,-5.84766 -5.5625,-5.52344 m -18.1445,5.89844 c -0.8789,3.40625 1.0898,4.41015 4.6875,4.51953 4.4609,0.14062 5.1602,-2.125 5.0312,-5.75 -0.121,-3.30859 -0.9414,-4.89453 -4.8984,-4.92188 -4.6094,-0.0273 -5.3125,2.12891 -4.8203,6.15235 m -44.9883,-11.20703 c -0.4453,3.30859 0.1406,5.40234 4.3516,5.36718 3.8164,-0.0352 5.789,-0.6875 5.6562,-5.0664 -0.1133,-3.6875 -1.332,-4.95703 -5.0156,-4.83203 -3.2812,0.11718 -5.8281,0.46484 -4.9922,4.53125 m 11.6914,-26.26953 c 15.8399,-2.61329 33.8203,4.09765 52.668,8.95312 14.9297,3.85156 20.2695,9.16406 20.1328,23.63281 -0.1172,12.6875 2.1992,25.42188 3.8711,38.08203 0.6797,5.16797 -1.2109,6.25 -6.0391,6.16016 -13.0586,-0.25 -26.1289,-0.30859 -39.1797,0.0586 -5.5937,0.15625 -7.0585,-1.96875 -6.664,-6.95703 0.3555,-4.51562 0.3945,-9.10547 -0.01,-13.61328 -0.3321,-3.7539 2.3515,-9.42187 -1.8516,-10.85547 -4.918,-1.67968 -10.8984,-0.77343 -16.3672,-0.37109 -3.2929,0.23828 -2.3164,3.43359 -2.3515,5.51172 -0.1094,6.80859 -0.293,13.63672 0.055,20.43359 0.2344,4.53906 -1.4648,5.64453 -5.9453,5.81641 -19.7773,0.75 -19.7929,0.90625 -20.2929,-18.67578 -0.2735,-10.78516 -0.6875,-21.57422 -0.5743,-32.35547 0.055,-5.125 -1.6992,-7.45703 -6.9257,-8.76172 -3.543,-0.88281 -8.9297,-0.56641 -9.1524,-6.95703 -0.2344,-6.75781 0.1641,-11.3125 9.3438,-10.29688 8.3086,0.92578 16.8086,0.19532 29.2812,0.19532"
         id="path719" />
    </g>
  </g>
  <g
     clip-path="url(#clip-8)"
     id="g729"
     transform="translate(-1065.9382,-560.76568)">
    <g
       clip-path="url(#clip-9)"
       id="g727">
      <path
         fill-rule="nonzero"
         fill="#ffffff"
         fill-opacity="1"
         d="m 1607.5703,841.51562 c 0.2305,-2.59375 -1.1406,-3.39843 -3.5976,-3.33593 -2.4922,0.0586 -3.5977,1.01562 -3.4688,3.61328 0.125,2.52734 1.2539,3.44922 3.7344,3.46484 2.6875,0.0156 3.5195,-1.29297 3.332,-3.74219 m 30.8477,-12.07421 c 0.2461,-2.55079 -0.9492,-3.57032 -3.4492,-3.60938 -2.4219,-0.043 -3.6954,0.68359 -3.6055,3.35938 0.082,2.32421 0.6523,3.77734 3.3633,3.71875 2.414,-0.0469 3.7734,-0.92969 3.6914,-3.46875 m -0.2969,-14.9961 c 2.2031,0.15235 3.832,-0.36719 3.8203,-3.16015 -0.012,-2.3125 -0.5859,-3.80469 -3.2773,-3.91016 -2.4219,-0.0937 -3.7539,0.59375 -3.7774,3.26562 -0.027,2.30079 0.3594,4 3.2344,3.80469 m 7.5312,-36.88281 c 0.1875,-2.33203 -0.3984,-3.90625 -3.2031,-3.85938 -2.1914,0.0352 -4,0.1211 -4.0508,3.04688 -0.047,2.67578 0.5196,4.38281 3.7227,4.37891 2.625,0 3.6602,-1.09766 3.5312,-3.56641 m -25.789,25.85156 c 0.2422,-2.46484 -0.75,-3.71875 -3.3477,-3.65625 -2.3047,0.0547 -3.7578,0.69141 -3.7226,3.39844 0.031,2.44531 0.9336,3.59375 3.4687,3.72266 2.6133,0.1289 3.6016,-1.07422 3.6016,-3.46485 m -4.6289,-19.51562 c 0.059,-2.66797 -1.5,-3.4375 -3.8711,-3.41797 -2.5352,0.0234 -3.6055,1.15234 -3.457,3.73828 0.1484,2.53516 1.2968,3.61719 3.8164,3.46094 2.4257,-0.15235 3.7695,-1.19922 3.5117,-3.78125 m 4.5976,38.29687 c -2.3828,-0.0898 -3.7382,0.66797 -3.7422,3.39453 -0.01,3.13672 1.5391,3.83985 4.2969,3.75 2.75,-0.0898 3.2813,-1.67968 3.2813,-3.92187 0,-2.66016 -1.4727,-3.48047 -3.836,-3.22266 m 34.3477,-16.64062 c 0,10.94922 -0.1953,21.90234 0.09,32.84375 0.125,4.64453 -0.375,7.19922 -6.0586,7.6875 -17.4921,1.49609 -34.9336,3.625 -52.375,5.64062 -2.8632,0.33203 -4.4687,-0.15625 -4.289,-3.375 0.1601,-2.86719 -0.9492,-6.86719 0.539,-8.4375 14.8282,-15.64844 7.9375,-34.8789 8.9336,-52.65234 0.8438,-15.01563 0.2032,-15.05078 -14.9062,-17.88672 -8.4961,-1.59375 -13.1524,-10.42188 -10.1406,-18.77734 0.9062,-2.51954 2.4296,-1.83594 4.0273,-1.49219 23.3477,5.04687 46.6836,10.15625 70.043,15.14844 4.1211,0.88281 3.5195,3.94531 3.5312,6.72656 0.051,11.52734 0.024,23.05078 0.024,34.57422 0.1914,0 0.3867,0 0.582,0"
         id="path725" />
    </g>
  </g>
  <g
     clip-path="url(#clip-10)"
     id="g735"
     transform="translate(-1065.9382,-560.76568)">
    <g
       clip-path="url(#clip-11)"
       id="g733">
      <path
         fill-rule="nonzero"
         fill="#ffffff"
         fill-opacity="1"
         d="m 1298.9609,833.64844 c 0,12.74609 -0.164,25.49218 0.09,38.23047 0.09,4.41406 -1.0781,5.82421 -5.3555,3.9375 -0.7851,-0.34375 -1.668,-0.47266 -2.4765,-0.77344 -10.7305,-3.98828 -25.9766,-3.42969 -31.418,-11.78516 -5.1485,-7.91015 -1.4336,-21.38281 -1.4844,-32.41015 -0.07,-15.58204 0.3711,-31.17579 -0.1875,-46.74219 -0.2773,-7.76953 2.1563,-8.35938 8.6563,-5.65235 7.582,3.16016 15.4296,5.76563 23.3046,8.16407 4.711,1.4375 7.1329,3.41797 6.9571,8.80859 -0.4219,12.73047 -0.1367,25.48047 -0.1367,38.22266 0.6836,0 1.3671,0 2.0507,0"
         id="path731" />
    </g>
  </g>
  <g
     clip-path="url(#clip-12)"
     id="g741"
     transform="translate(-1065.9382,-560.76568)">
    <g
       clip-path="url(#clip-13)"
       id="g739">
      <path
         fill-rule="nonzero"
         fill="#ffffff"
         fill-opacity="1"
         d="m 1511.6172,783.17187 c 0.7344,-0.004 2.3398,-0.26562 2.4453,-2.625 0.094,-2.19531 -0.1953,-4.07421 -3.0234,-4.08593 -2.418,-0.008 -3.7071,1.11328 -3.7344,3.61718 -0.027,2.21875 1.2226,3.00782 4.3125,3.09375 m -11.0117,28.78125 c 0,-13.5625 0.2187,-27.13281 -0.1016,-40.6914 -0.1289,-5.58985 0.8633,-7.97656 7.1797,-6.42188 8.6719,2.13672 17.5234,3.5586 26.3437,5.03125 4.6993,0.78516 6.6758,2.63282 6.6094,7.92188 -0.3008,23.94922 -0.07,47.90625 -0.055,71.86328 0,4.05078 0.4024,8.31641 -5.8789,7.95703 -6.6679,-0.375 -3.5703,-5.3125 -3.9062,-8.35156 -0.4414,-3.99219 -0.1563,-8.07422 -0.031,-12.10938 0.1289,-4.11328 -1.0351,-6.46875 -5.8476,-6.38672 -4.4727,0.0742 -5.2227,2.38282 -5.1641,6.02344 0.09,5.76953 0.2852,11.5586 -0.074,17.3086 -0.6406,10.17578 -9.1289,5.14062 -14.043,6.625 -5.3437,1.61718 -5.0586,-2.75782 -5.0508,-6.33985 0.039,-14.14062 0.016,-28.28515 0.02,-42.42969"
         id="path737" />
    </g>
  </g>
  <g
     clip-path="url(#clip-14)"
     id="g747"
     transform="translate(-1065.9382,-560.76568)">
    <g
       clip-path="url(#clip-15)"
       id="g745">
      <path
         fill-rule="nonzero"
         fill="#ffffff"
         fill-opacity="1"
         d="m 1205.9531,888.9375 c 0,9.07812 -0.3164,18.17187 0.125,27.23047 0.2461,5.05078 -1.4765,7.1875 -6.5312,7.72265 -3.7149,0.39063 -7.3594,1.54688 -10.9922,2.52735 -7.1563,1.92969 -14.6094,4.65234 -12.4453,-7.8086 0.5586,-3.21093 -2.168,-3.44531 -4.6172,-3.44531 -5.8008,-0.004 -11.6172,-0.26562 -17.3984,0.0664 -4.7344,0.26953 -6.2344,-1.67969 -5.7618,-5.94531 0.2461,-2.24219 -0.5742,-5.02735 0.5039,-6.6836 7.2735,-11.20312 5.0118,-23.6289 4.8204,-35.6289 -0.1016,-6.42969 2.0234,-8.21875 8.2226,-8.58594 12.4336,-0.73438 24.8477,-2.04688 37.2109,-3.58203 5.3243,-0.66016 7.25,0.49218 6.9844,6.04687 -0.4453,9.34375 -0.1211,18.72266 -0.1211,28.08594"
         id="path743" />
    </g>
  </g>
  <g
     clip-path="url(#clip-16)"
     id="g753"
     transform="translate(-1065.9382,-560.76568)">
    <g
       clip-path="url(#clip-17)"
       id="g751">
      <path
         fill-rule="nonzero"
         fill="#ffffff"
         fill-opacity="1"
         d="m 1694.0117,886.125 c 0,9.49609 0.047,18.99219 -0.035,28.48828 -0.016,1.94141 0.8789,5.09375 -0.9805,5.61328 -8.8047,2.46485 -17.7031,4.87891 -26.7305,6.08594 -3.3281,0.44531 -1.8164,-4.25391 -1.6953,-6.36328 0.3125,-5.30078 -1.5742,-7.36328 -6.8945,-6.8125 -3.4141,0.35156 -6.8985,0.0547 -10.3516,0.0586 -10.9258,0.004 -14.4531,-3.23047 -9.9023,-12.71094 5.8867,-12.26562 4.5625,-24.6289 4.5625,-37.10546 0,-5.57813 1.7617,-7.41797 7.2695,-7.79297 12.9063,-0.87891 25.8047,-2.15235 38.6289,-3.86719 5.4375,-0.72656 6.3281,1.22656 6.2031,5.92187 -0.2578,9.48829 -0.078,18.98829 -0.074,28.48438"
         id="path749" />
    </g>
  </g>
  <g
     clip-path="url(#clip-18)"
     id="g759"
     transform="translate(-1065.9382,-560.76568)">
    <g
       clip-path="url(#clip-19)"
       id="g757">
      <path
         fill-rule="nonzero"
         fill="#ffffff"
         fill-opacity="1"
         d="m 1449.8359,944.04297 c 4.3438,0 8.6954,-0.13281 13.0352,0.0391 3.4727,0.14063 4.4492,-1.375 4.4414,-4.57031 -0.01,-3.26953 -0.3906,-5.40625 -4.5859,-5.30078 -8.1055,0.20312 -16.2266,0.14453 -24.336,-0.0234 -3.8086,-0.0781 -5.0117,1.45703 -4.9922,5.07031 0.024,3.67578 1.4336,5.0586 5.1407,4.85547 3.7539,-0.21094 7.5273,-0.0508 11.2968,-0.0703 m -3.4687,-12.61719 v 0.0391 c 4.3242,0 8.6601,-0.15234 12.9766,0.0469 3.7265,0.17187 5.1328,-1.23828 5.0468,-4.91016 -0.078,-3.23437 -0.4101,-5.26172 -4.6133,-5.11328 -8.0664,0.28125 -16.1523,0.18359 -24.2265,0.0117 -3.5547,-0.0742 -5.2852,0.84375 -5.1563,4.71094 0.1133,3.3164 0.6797,5.45703 4.7266,5.2539 3.7383,-0.1875 7.4961,-0.0391 11.2461,-0.0391 m 27.4531,8.98828 c 0,10.19141 -0.168,20.39063 0.078,30.58203 0.1055,4.28125 -1.1132,6.03125 -5.7929,5.9336 -12.1563,-0.25782 -24.3203,-0.22657 -36.4727,-0.008 -4.5,0.082 -5.8984,-1.58593 -6.1406,-5.85546 -1.1758,-20.63282 -2.5,-41.25782 -4.1328,-61.85938 -0.3867,-4.91797 0.9922,-6.28516 5.9531,-6.17187 13.3125,0.29687 26.6406,0.33593 39.9492,-0.0195 5.461,-0.14453 7.0039,1.71875 6.8399,6.82032 -0.3243,10.18359 -0.094,20.38281 -0.094,30.57812 -0.062,0 -0.125,0 -0.1875,0"
         id="path755" />
    </g>
  </g>
  <g
     clip-path="url(#clip-20)"
     id="g765"
     transform="translate(-1065.9382,-560.76568)">
    <g
       clip-path="url(#clip-21)"
       id="g763">
      <path
         fill-rule="nonzero"
         fill="#ffffff"
         fill-opacity="1"
         d="m 1573.4219,808.86719 c 5.2226,1.1914 8.25,0.10156 8.0117,-6.72266 -0.1914,-5.55078 -0.8711,-8.46094 -7.375,-8.17969 -5.2109,0.22657 -8.7539,0.27735 -8.2383,7.20313 0.3867,5.19922 0.2227,9.51172 7.6016,7.69922 m -22.9531,5.33593 c 0,-11.82421 0.1914,-23.65625 -0.086,-35.47265 -0.1211,-5.19531 1.336,-6.47266 6.5195,-5.22266 9.5157,2.29297 19.1602,4.1836 28.8438,5.59766 4.8672,0.71094 6.0625,2.78125 5.9414,7.33594 -0.2891,10.66796 -0.078,21.34375 -0.09,32.01562 0,2.5625 0.3398,5.21094 -1.6758,7.33203 -6.2227,6.5586 -9.8438,14.00391 -8.2969,23.36719 0.5664,3.42187 -1.625,4.42969 -4.6406,4.68359 -6.8946,0.58594 -13.8086,1.10938 -20.6485,2.10157 -4.5976,0.66406 -6.0898,-0.71094 -5.9843,-5.39454 0.2695,-12.10937 0.09,-24.22656 0.09,-36.34375 z m 0,0"
         id="path761" />
    </g>
  </g>
  <g
     clip-path="url(#clip-22)"
     id="g771"
     transform="translate(-1065.9382,-560.76568)">
    <g
       clip-path="url(#clip-23)"
       id="g769">
      <path
         fill-rule="nonzero"
         fill="#ffffff"
         fill-opacity="1"
         d="m 1230.9922,804.31641 c 2.207,-0.23829 5,0.5 5.0078,-2.9961 0,-3.27344 -2.4102,-3.22265 -4.793,-3.19531 -2.5625,0.0273 -5.5625,-0.48047 -5.3476,3.4375 0.1914,3.46094 3.1484,2.39062 5.1328,2.75391 m -0.8906,3.04296 c -1.1407,0.21094 -3.5078,-0.0547 -4.3399,0.92579 -3.3203,3.91796 7,7.68359 0.2344,12.57812 -1.6172,1.16797 1.8125,4.12891 4.3398,4.9375 0.586,0.1875 1.4688,-0.69141 2.2657,-0.91016 9.7851,-2.71093 -4.75,-10.42578 2.8984,-13.7539 0.457,-0.19922 0.3477,-2.8086 -1.4297,-3.34766 -1.0664,-0.32422 -2.2578,-0.26172 -3.9687,-0.42969 m 18.1679,4.46094 c 0,10.78906 -0.1484,21.57422 0.074,32.35547 0.09,4.28125 -1.2188,5.75391 -5.8438,5.97266 -26.3594,1.2539 -26.3555,1.38281 -26.3672,-24.17578 -0.01,-13.625 0.211,-27.25 -0.1015,-40.86719 -0.1094,-4.63281 1.4921,-6.48438 6.0507,-7.20313 6.5703,-1.03906 13.1055,-2.45312 19.5235,-4.17968 5.6679,-1.51954 6.9961,0.42187 6.8164,5.74609 -0.3555,10.77344 -0.1055,21.56641 -0.1055,32.35156 z m 0,0"
         id="path767" />
    </g>
  </g>
  <g
     clip-path="url(#clip-24)"
     id="g777"
     transform="translate(-1065.9382,-560.76568)">
    <g
       clip-path="url(#clip-25)"
       id="g775">
      <path
         fill-rule="nonzero"
         fill="#ffffff"
         fill-opacity="1"
         d="m 1237.6445,877.35937 c 0.4141,-3.57031 -0.3437,-5.79687 -4.9257,-5.7539 -4.379,0.043 -6.168,1.32812 -6.086,5.80859 0.07,4.0625 1.6563,5.38281 5.6485,5.3711 4.0039,-0.008 6.0195,-1.28907 5.3632,-5.42579 m -21.2695,12.69141 c 0,-8.20703 0.2461,-16.42578 -0.1055,-24.61719 -0.1797,-4.25 1.3633,-5.32031 5.4141,-5.15234 6.9336,0.28125 13.9023,0.39844 20.8203,0.008 4.9961,-0.28515 5.5781,1.90235 5.5156,6.00781 -0.207,13.58204 -0.2695,27.17188 0.094,40.7461 0.1367,5.04687 -1.6211,7.46484 -6.6445,7.59765 -6.5821,0.17579 -3.129,-4.78515 -3.5665,-7.38281 -0.6015,-3.58203 -0.3007,-7.33984 -0.1171,-11.01172 0.1953,-3.96093 -1.3672,-5.46093 -5.5391,-5.45703 -4.207,0.004 -5.6328,1.60156 -5.5156,5.51172 0.164,5.37109 -0.4883,10.80859 0.1328,16.11328 0.7265,6.21485 -3.9024,6.35938 -7.5274,6.6875 -5.2304,0.46875 -2.7421,-3.96875 -2.832,-6.13281 -0.3242,-7.62891 -0.125,-15.27734 -0.1289,-22.91797"
         id="path773" />
    </g>
  </g>
  <g
     clip-path="url(#clip-26)"
     id="g783"
     transform="translate(-1065.9382,-560.76568)">
    <g
       clip-path="url(#clip-27)"
       id="g781">
      <path
         fill-rule="nonzero"
         fill="#ffffff"
         fill-opacity="1"
         d="m 1669.75,793.02344 c 0.7305,6.90625 -1.9219,12.98047 7.1328,12.44922 8.918,-0.52735 9.043,0.0976 7.4375,-9.09375 -0.2656,-1.50782 0.8477,-1.8125 1.1758,-2.72657 2.125,-5.91015 1.0156,-8.49609 -6.2461,-8.83203 -8.6641,-0.40625 -10.5859,3.15625 -9.5,8.20313 m -6.5156,12.14843 c 0,-10.08593 0.2109,-20.17578 -0.086,-30.2539 -0.1562,-5.28906 0.2735,-8.21094 6.8868,-6.07813 7.625,2.46485 18.2304,1.625 22.5703,6.57422 3.9218,4.47266 1.2304,14.82031 1.2851,22.57813 0.094,12.39453 -0.4062,24.80859 0.2149,37.17187 0.4297,8.50391 -5.4571,6.26563 -9.7461,6.875 -6.4219,0.92188 -3.9688,-4.09375 -4.1641,-6.91015 -0.3164,-4.58985 -0.2773,-9.22657 -0.031,-13.82813 0.2109,-3.98828 -1.0157,-5.6875 -5.3203,-5.58594 -3.9688,0.0937 -4.8399,1.78516 -4.7305,5.30078 0.1797,5.75782 0.059,11.52735 -0.047,17.29297 -0.043,2.13672 0.7656,5.10157 -2.6797,5.3086 -4.4492,0.26953 -3.0117,-3.4375 -3.0469,-5.58985 -0.1679,-10.94922 -0.078,-21.90234 -0.078,-32.85547 -0.3398,0 -0.6836,0 -1.0273,0"
         id="path779" />
    </g>
  </g>
  <g
     clip-path="url(#clip-28)"
     id="g789"
     transform="translate(-1065.9382,-560.76568)">
    <g
       clip-path="url(#clip-29)"
       id="g787">
      <path
         fill-rule="nonzero"
         fill="#ffffff"
         fill-opacity="1"
         d="m 1189.1641,789.46094 c -7.1953,-1.76953 -8.9532,2.23047 -6.6719,7.94531 1.0351,2.59766 -0.6602,4.00781 -0.4102,5.98828 0.2618,2.08594 -0.8203,5.05859 2.4961,5.35547 3.9649,0.35937 8.5899,1.19922 11.8203,-0.36328 2.9883,-1.44531 2.75,-5.62891 -0.4609,-8.36719 -0.1797,-0.15625 0.5117,-1.33594 0.8516,-2.01172 4.039,-8.08984 -0.5703,-9.21094 -7.625,-8.54687 m -10.7461,-16.88672 c 7.5351,1.55078 15.0508,3.1914 22.6093,4.61719 3.7071,0.69531 5.1563,2.33593 5.1094,6.26953 -0.2226,18.70703 -0.2734,37.41797 -0.027,56.125 0.1094,8.09765 -6.0742,4.78125 -9.8203,5.71484 -5.6368,1.40234 -4.3203,-2.89844 -4.4024,-5.71094 -0.1367,-4.8164 -0.1758,-9.64453 0.01,-14.45703 0.1368,-3.60547 -0.3632,-5.74219 -5.039,-5.70312 -4.875,0.043 -4.8828,2.62109 -4.8242,5.98828 0.1015,5.66797 0.023,11.33984 0.035,17.01172 0,2.34375 0.078,4.73047 -3.3789,4.60547 -3.0117,-0.10547 -2.7266,-2.31641 -2.75,-4.27344 -0.2344,-23.22266 -0.457,-46.44922 -0.6836,-69.66406 1.0547,-0.17188 2.1094,-0.34766 3.1641,-0.52344"
         id="path785" />
    </g>
  </g>
  <g
     clip-path="url(#clip-30)"
     id="g795"
     transform="translate(-1065.9382,-560.76568)">
    <g
       clip-path="url(#clip-31)"
       id="g793">
      <path
         fill-rule="nonzero"
         fill="#85beae"
         fill-opacity="1"
         d="m 1178.418,772.57422 c -1.0547,0.17578 -2.1094,0.35156 -3.1641,0.52344 0.7578,-1.92579 1.9492,-1.30079 3.1641,-0.52344"
         id="path791" />
    </g>
  </g>
  <g
     clip-path="url(#clip-32)"
     id="g801"
     transform="translate(-1065.9382,-560.76568)">
    <g
       clip-path="url(#clip-33)"
       id="g799">
      <path
         fill-rule="nonzero"
         fill="#ffffff"
         fill-opacity="1"
         d="m 1460.3945,868.22656 c -2.3554,1.24219 -5.7695,1.64063 -7.3711,0.21094 -3.2929,-2.94141 -0.5859,-7.40234 -1.5742,-11.19141 1.0117,-3.30859 -1.6953,-7.57031 1.793,-10.01562 1.7266,-1.20313 5.0312,-1.14063 7.2851,0.48437 1.379,0.9961 1.2735,19.77344 -0.1328,20.51172 m -20.3867,-6.3125 c -0.1523,-0.0469 -0.3008,-0.0976 -0.4492,-0.14453 -1.332,-4.95703 -0.957,-9.94141 -0.3047,-14.93359 0.1602,0 0.3164,0 0.4766,0 5.0703,-0.32032 9.0664,-0.63282 8.8593,6.92968 -0.1835,6.63282 -2.1484,8.9961 -8.582,8.14844 m -12.4375,-1.23047 c -2.3515,-3.39062 -1.7578,-8.23828 -0.539,-12.03125 1.1367,-3.53906 5.0703,-1.33203 7.8593,-1.74218 0.1875,4.52343 0.3789,9.04687 0.5664,13.5664 0.1328,0.043 0.2618,0.0859 0.3907,0.12891 -2.7969,1.87109 -6.7618,2.2539 -8.2774,0.0781 m 65.1133,-39.33203 c -0.01,-2.26953 0.2187,-5.02344 -3.1641,-4.92187 -7.7617,0.23047 -15.6875,-1.45313 -23.25,1.39843 -15.1132,5.69922 -30.1328,11.63282 -45.2968,17.19922 -4.2852,1.57422 -5.4454,3.81641 -4.9493,8.20703 1.1563,10.13672 1.7227,20.33204 2.4805,30.51172 1.4649,19.71875 1.4492,19.76172 21.6055,19.72657 8.6758,-0.0117 20.3281,3.01562 25.25,-1.25782 5.6328,-4.89453 1.3437,-16.51172 1.7422,-22.70312 0,-9.29688 0.3476,-16.125 -0.1094,-22.89844 -0.3555,-5.26562 1.4961,-6.34375 6.7422,-6.78906 7.9922,-0.67578 10.3437,2.03515 9.3476,9.3789 -0.5273,3.89844 -0.164,7.92969 -0.047,11.89454 0.078,2.59375 -1.0899,6.13281 3.8945,5.65625 3.4648,-0.33204 5.9805,-0.98047 5.8984,-5.42579 -0.2539,-13.32421 -0.1133,-26.64843 -0.1445,-39.97656"
         id="path797" />
    </g>
  </g>
  <g
     clip-path="url(#clip-34)"
     id="g807"
     transform="translate(-1065.9382,-560.76568)">
    <g
       clip-path="url(#clip-35)"
       id="g805">
      <path
         fill-rule="nonzero"
         fill="#0b0c0b"
         fill-opacity="1"
         d="m 1669.75,793.02344 c -1.0859,-5.04688 0.8359,-8.60938 9.5,-8.20313 7.2617,0.33594 8.3711,2.92188 6.2461,8.83203 -0.3281,0.91407 -1.4414,1.21875 -1.1758,2.72657 1.6055,9.1914 1.4805,8.5664 -7.4375,9.09375 -9.0547,0.53125 -6.4023,-5.54297 -7.1328,-12.44922"
         id="path803" />
    </g>
  </g>
</svg>
